<svg width="898" height="1420" viewBox="0 0 898 1420" fill="none" xmlns="http://www.w3.org/2000/svg">
<g filter="url(#filter0_d)">
<path fill-rule="evenodd" clip-rule="evenodd" d="M864.349 1389.35C885.376 1388.3 876.919 1350.25 875.41 1336.28C858.762 1285.25 862.676 1229.56 856.128 1176.07C852.049 1126.13 846.808 1076.35 842.4 1026.45C833.741 925.165 771.564 718.967 700.609 685.805C691.67 645.235 654.753 607.364 608.044 607.364C576.187 568.355 537.842 540.901 488.66 546.444C468.336 547.401 448.626 569.699 429.151 574.006C418.247 575.561 321.479 571.558 302.094 583.467C288.592 590.638 276.403 603.891 280.373 620.764C286.708 641.205 267.022 619.087 225.957 640.905C142.22 692.93 192.258 762.527 194.475 764.684C142.22 839.894 96.5458 900.91 75.4132 992.839C61.7172 1061.09 63.2589 1131.54 51.7836 1200.14C47.7318 1223.93 41.516 1246.9 34.7898 1270C27.5001 1300.23 23.9555 1375.58 19.9374 1376.25C12.6183 1378.13 24.1675 1393.68 31.9229 1393.69C246.942 1430.59 465.349 1395.22 681.523 1389.44C742.444 1387.25 803.431 1386.74 864.349 1389.35Z" fill="#A8683B"/>
<path fill-rule="evenodd" clip-rule="evenodd" d="M429.422 640.233C429.422 663.905 508.88 751.866 536.302 746.063C554.583 742.194 582.204 716.964 619.165 670.373V640.233L611.183 607.421C656.4 609.07 691.872 646.149 700.609 685.806C770.855 718.636 832.497 921.059 842.124 1023.39L842.4 1026.45C846.808 1076.35 852.049 1126.13 856.128 1176.07C862.676 1229.56 858.762 1285.25 875.41 1336.28L875.509 1337.15C877.246 1351.76 884.956 1388.32 864.349 1389.35C803.431 1386.74 742.444 1387.25 681.523 1389.44C465.349 1395.22 246.942 1430.59 31.9229 1393.69C24.1675 1393.68 12.6183 1378.13 19.9374 1376.25C23.9555 1375.58 27.5001 1300.23 34.7898 1270L36.1736 1265.23C42.363 1243.73 48.0112 1222.29 51.7836 1200.14C63.2589 1131.55 61.7172 1061.09 75.4132 992.839C96.5458 900.911 142.22 839.894 194.475 764.684C192.258 762.528 142.22 692.93 225.957 640.905C267.022 619.087 286.708 641.206 280.373 620.764C276.403 603.892 288.592 590.639 302.094 583.467C321.479 571.558 418.247 575.561 429.151 574.006C434.217 572.886 439.298 570.549 444.402 567.686L443.517 570.736C434.12 603.315 429.422 626.481 429.422 640.233Z" fill="#02404E"/>
<path fill-rule="evenodd" clip-rule="evenodd" d="M538.456 771.322C538.556 770.304 539.884 770.306 539.986 771.322L541.504 786.482C543.351 804.997 545.129 823.475 546.418 842.076C548.025 865.272 549.1 888.462 549.618 911.71C551.424 992.675 551.783 1073.68 551.936 1154.67C562.523 1153.91 573.112 1153.18 583.706 1152.47C590.893 1151.99 598.081 1151.53 605.27 1151.08L623.6 1149.93V1149.93L631.147 1149.45C636.246 1149.12 642.04 1147.8 645.605 1152.47C647.033 1154.34 647.749 1156.77 646.418 1158.99C643.349 1164.11 638.634 1163.94 633.302 1164.16C628.271 1164.37 623.24 1164.57 618.209 1164.77C607.428 1165.21 596.648 1165.62 585.863 1165.93C574.546 1166.26 563.234 1166.52 551.92 1166.72C551.806 1200.91 550.438 1235.06 548.96 1269.21L548.291 1284.58C546.481 1326.14 544.535 1367.74 541.77 1409.24C541.543 1412.64 536.896 1412.63 536.671 1409.24C533.557 1362.5 531.503 1315.66 529.466 1268.85C527.988 1234.92 527.129 1200.98 526.72 1167.03C525.224 1167.04 523.729 1167.06 522.234 1167.06C479.772 1167.25 437.32 1167.45 394.858 1167.03C394.929 1167.12 394.999 1167.21 395.045 1167.32C398.118 1174.83 398.411 1184.4 398.335 1192.45C398.25 1201.69 397.047 1210.81 394.991 1219.8C387.624 1251.97 368.621 1280.79 346.977 1304.62L346.271 1305.39C341.166 1310.97 335.309 1316.58 332.174 1323.69C328.972 1330.94 327.861 1339.43 326.281 1347.23L326.096 1348.13L319.919 1377.65C317.956 1387.02 317.399 1400.69 310.224 1407.46C303.531 1413.77 294.664 1410.47 291.514 1402.35C289.054 1396.01 291.504 1389.04 292.961 1382.7L304.375 1333.07C306.251 1324.97 308.3 1316.82 312.348 1309.55C316.495 1302.11 322.573 1296.71 328.776 1291.18C340.521 1280.72 351.304 1268.75 360.422 1255.78C369.538 1242.82 377.328 1228.53 382.791 1213.51C385.526 1205.99 387.768 1198.17 389.314 1190.3C390.784 1182.82 390.77 1175.08 392.343 1167.69C392.45 1167.18 392.867 1166.83 393.345 1166.67C393.232 1166.34 393.405 1165.9 393.851 1165.87L428.578 1163.56C459.447 1161.5 490.314 1159.39 521.155 1156.97L526.605 1156.56V1156.56C526.182 1111.27 526.541 1065.96 527.332 1020.65C528.057 979.097 528.072 937.533 529.267 895.986C529.861 875.366 531.141 854.794 532.567 834.216C534.025 813.171 536.358 792.304 538.456 771.322ZM212.385 1012.26C212.015 1009.95 214.821 1008.52 216.115 1010.63C230.902 1034.74 238.032 1060.93 241.037 1089.14C243.692 1114.05 242.91 1139.31 241.588 1164.27C240.178 1190.9 238.532 1217.53 236.869 1244.14L234.313 1284.96V1284.96L227.899 1387.28C227.44 1394.59 225.834 1401.25 219.742 1404.65C218.971 1405.32 218.167 1405.92 217.23 1406.43C213.939 1408.25 209.574 1407.33 207.671 1403.84L208.434 1404.36C209.098 1404.79 208.352 1404.19 206.194 1402.55L204.363 1400.1V1400.1C203.033 1398.03 202.183 1395.99 201.841 1393.54C201.31 1389.71 201.998 1385.52 202.239 1381.68L206.444 1314.59V1314.59C209.713 1262.43 213.531 1210.28 216.409 1158.1C217.749 1133.78 218.688 1109.43 218.053 1085.06C217.419 1060.83 216.226 1036.19 212.385 1012.26ZM340.308 563.114L341.128 562.971C370.5 557.924 402.437 558.869 429.28 573.515C429.502 573.635 429.401 574.017 429.151 574.006L420.512 573.649C393.16 572.541 365.893 571.885 338.999 578.532L336.246 579.219C326.561 581.663 316.447 584.654 308.667 591.271C301.232 597.596 297.529 607.353 293.969 616.336L293.493 617.522C289.881 626.393 285.309 634.807 277.392 640.355C267.138 647.539 254.805 646.659 243.047 647.634C222.344 649.355 205.418 664.876 196.996 683.869C191.897 695.37 189.722 708.263 189.291 720.84C189.07 727.243 189.038 733.896 189.863 740.256C190.127 742.29 192.557 749.699 193.796 749.521C196.55 749.126 199.068 750.612 199.926 752.889C206.729 746.091 213.727 739.489 220.95 733.124C238.956 717.262 258.35 702.886 278.774 690.532C294.362 681.103 310.804 671.761 327.831 664.698C326.481 664.669 325.151 664.946 323.864 665.638C323.3 665.943 322.74 665.211 323.185 664.728C328.548 658.891 334.971 658.06 341.447 659.617C342.829 659.162 344.212 658.722 345.6 658.304C346.291 658.096 346.635 659.081 346.071 659.461L344.481 660.512V660.512C351.545 662.96 358.481 667.772 363.972 671.57C379.747 682.475 393.631 695.806 407.705 708.888L410.264 711.26C422.653 722.703 435.358 733.822 449.433 743.002C456.801 747.807 464.54 752.252 472.658 755.557C479.62 758.395 490.956 760.181 494.217 767.793C497.116 771.435 495.905 776.083 492.51 778.535C486.785 785.053 475.332 780.842 468.51 778.127C460.286 774.854 452.319 770.921 444.72 766.307C429.967 757.348 416.365 746.209 403.694 734.36C390.46 721.983 377.977 708.836 365.106 696.072C359.529 690.541 354.081 684.881 348.496 679.358L345.69 676.61C342.84 673.844 338.778 669.533 334.436 666.925C326.255 671.972 317.948 676.812 309.841 681.991C298.525 689.219 287.541 696.968 276.727 704.972C255.909 720.382 236.181 737.64 217.867 756.139C184.277 790.065 155.66 828.805 130.661 869.825L128.762 872.951C114.556 896.43 101.122 920.666 91.5965 946.61C81.1156 975.158 76.0183 1005.18 73.2493 1035.48C70.5009 1065.57 69.5739 1095.81 66.5025 1125.87C63.3526 1156.7 57.1466 1186.85 50.0875 1216.94L48.4039 1224.07C42.0166 1251.02 35.424 1277.97 32.1406 1305.56C30.3878 1320.29 29.3335 1335.23 29.5718 1350.08C29.8112 1365.02 32.0808 1379.63 33.9119 1394.42C34.6137 1400.08 29.2258 1404.81 24.4048 1405.56C18.8603 1406.42 14.0969 1402.76 12.3735 1397.43C7.00084 1380.82 6.02489 1362.46 6.19353 1345.03C6.36326 1327.33 8.54692 1309.75 11.6195 1292.36C17.6623 1258.14 26.9878 1224.64 34.7889 1190.83C41.6641 1161.04 46.2783 1131.19 48.7656 1100.67C51.3474 1069 52.8935 1037.23 57.6035 1005.79C62.2527 974.753 71.0003 945.107 84.1926 916.806C96.2043 891.039 111.178 866.785 126.876 843.276C145.939 814.73 166.876 787.566 190.279 762.816C188.177 762.721 186.018 762.019 184.036 760.74C177.971 756.827 175.147 749.172 174.278 742.183C172.246 725.833 172.737 708.763 176.802 692.778C183.359 666.99 200.378 644.077 225.043 634.781C231.392 632.388 238.141 631.515 244.869 631.343C251.254 631.178 258.227 632.039 264.387 629.946C274.193 626.612 278.396 614.665 282.077 605.609L282.247 605.194C286.968 593.654 292.634 583.763 302.859 576.557C313.769 568.868 327.437 565.371 340.308 563.114V563.114ZM619.382 608.751C628.208 605.584 639.243 608.458 647.874 611.225C657.49 614.309 666.376 619.988 673.994 626.733C682.032 633.846 688.674 642.63 693.367 652.442L693.815 653.387C698.101 662.489 702.983 674.985 700.822 684.984C700.76 685.268 700.689 685.541 700.608 685.806C718.12 694.723 734.292 705.893 748.376 720.049C764.774 736.532 778.66 755.289 790.41 775.553C837.08 856.035 845.294 952.694 850.806 1044.48L852.18 1067.75C855.173 1118 858.676 1168.14 867.774 1217.7L868.438 1221.27C878.163 1273.16 892.085 1325.45 890.675 1378.68C890.251 1394.63 867.466 1394.52 866.806 1378.68C864.318 1319.06 850.868 1261.49 841.76 1202.8C825.735 1099.55 833.765 993.095 811.058 890.874C802.147 850.758 788.343 811.846 768.631 776.038C758.895 758.348 747.755 741.255 734.705 725.994C723.478 712.863 711.809 700.226 698.688 689.187C694.495 693.531 686.118 691.317 683.929 684.984C682.425 680.632 682.864 675.543 681.899 670.984C681.003 666.753 679.769 662.558 678.123 658.574C674.844 650.633 670.031 643.008 664.474 636.581C658.472 629.635 651.573 623.863 643.853 619.098C636.08 614.3 627.58 612.867 619.382 609.361C619.106 609.243 619.08 608.86 619.382 608.751ZM653.673 1160.58C653.686 1160.16 654.163 1159.97 654.457 1160.25C657.551 1163.19 659.422 1167.42 661.699 1171.04C664.326 1175.22 667.084 1179.31 669.976 1183.3C675.77 1191.29 682.221 1198.81 688.723 1206.19C694.77 1213.05 701.216 1219.62 707.902 1225.81C715.146 1232.52 723.264 1238.51 729.845 1245.94C743.578 1261.44 745.797 1282.72 748.694 1302.71L749.012 1304.87C750.778 1316.73 752.362 1328.62 753.789 1340.52C754.483 1346.31 755.175 1352.11 755.741 1357.92L755.914 1359.76C756.418 1365.44 756.554 1371.21 753.398 1376.18C750.02 1381.49 742.34 1383.35 737.773 1378.26C729.928 1369.5 731.399 1353.96 730.378 1342.7C729.535 1333.38 728.578 1324.08 727.508 1314.8L726.963 1310.16C725.701 1299.59 724.676 1288.82 722.34 1278.44C720.28 1269.3 716.356 1262.4 709.917 1255.77C703.43 1249.1 696.69 1242.88 690.702 1235.69C684.352 1228.07 678.623 1219.9 673.462 1211.37C669.047 1204.08 665.508 1196.14 662.266 1188.22L661.728 1186.9C658.595 1179.16 653.428 1169.1 653.673 1160.58ZM766.949 828.507C767.017 827.429 768.558 827.412 768.581 828.507C768.776 837.782 768.963 847.056 769.149 856.331C770.646 931.067 769.723 1005.98 776.972 1080.46C780.39 1115.58 786.686 1150.18 793.97 1184.63C797.697 1202.27 801.608 1219.85 805.323 1237.49C808.944 1254.67 812.827 1271.94 815.7 1289.29C818.522 1306.33 821.05 1323.51 822.185 1340.78L822.325 1343.03C822.813 1351.4 825.145 1363.7 820.693 1371.11C815.868 1379.14 806.632 1379.29 801.463 1371.62C796.609 1364.42 797.816 1351.62 796.959 1343.03C796.087 1334.28 795.166 1325.53 794.119 1316.8C792.077 1299.77 789.386 1282.79 786.588 1265.88C780.759 1230.66 772.305 1195.89 766.065 1160.73C759.67 1124.71 755.124 1088.42 754.933 1051.74C754.742 1014.75 758.528 977.829 760.438 940.918C762.379 903.429 764.586 865.969 766.949 828.507ZM425.659 596.051C427.598 589.295 434.444 585.071 441.123 586.968C447.243 588.708 452.295 596.392 449.903 602.966C447.292 610.14 442.728 616.258 438.881 622.778C435.328 628.803 430.144 633.547 426.525 639.465L430.514 643.913C432.509 646.132 434.511 648.338 436.534 650.506L443.492 657.961C448.91 663.755 454.363 669.518 459.969 675.111C476.455 691.56 493.202 707.469 511.664 721.556C515.867 724.761 520.103 727.949 524.457 730.934L526.081 732.047C529.068 734.07 532.401 736.059 536.01 735.716C544.779 734.883 552.702 725.25 558.728 719.254L559.043 718.941C573.976 704.243 587.804 688.173 599.893 670.894C602.577 667.055 605.176 663.151 607.707 659.2C601.862 652.138 603.258 638.351 602.936 629.786C602.709 623.764 602.691 617.74 602.66 611.713L602.644 610.497C602.573 606.596 602.403 602.855 604.85 599.645C604.992 599.459 605.287 599.465 605.469 599.563C608.821 601.38 609.854 604.422 611.284 607.835L611.433 608.189C613.174 612.285 614.841 616.419 616.528 620.538C618.293 624.851 619.912 629.227 621.553 633.592C622.317 635.622 623.046 637.66 623.759 639.71C624.193 641.019 624.642 642.321 625.103 643.621L625.212 643.721C625.821 644.256 626.338 644.821 626.783 645.404C628.654 646.372 630.14 648.135 630.837 650.726C632.355 656.366 629.214 660.965 626.412 665.441C615.032 683.63 602.058 700.961 587.637 716.684C580.474 724.495 572.939 731.955 565.095 739.031L563.723 740.259C556.676 746.524 549.026 752.458 539.614 753.923C528.601 755.638 519.637 749.972 511.207 743.445L510.365 742.79C502.373 736.531 494.541 730.052 486.953 723.276C471.483 709.459 456.765 694.624 443.703 678.348C430.997 662.516 418.438 644.814 410.607 625.765C410.129 624.604 411.385 623.39 412.368 624.359C416.194 628.126 419.875 632.098 423.512 636.121C423.613 630.199 422.557 624.227 423.144 618.269C423.861 611.026 423.654 603.025 425.659 596.051Z" fill="black"/>
<path fill-rule="evenodd" clip-rule="evenodd" d="M737.928 386.035C735.285 362.016 738.705 311.812 738.935 308.762C740.384 289.479 731.647 213.336 715.133 220.352C687.43 197.671 650.532 192.663 616.03 190.27C544.363 185.3 468.123 196.71 412.784 246.589C385.416 272.493 358.773 310.168 360.915 349.395C336.05 386.579 300.996 437.585 331.976 481.055C342.507 494.943 359.244 500.115 372.474 510.634C399.083 532.83 415.777 564.686 442.64 586.75C513.806 652.888 634.647 666.703 704.568 591.478C758.637 536.997 749.894 455.491 740.384 386.035C733.99 339.34 743.084 432.894 737.928 386.035Z" fill="#A8683B"/>
<path fill-rule="evenodd" clip-rule="evenodd" d="M520.293 88.413C539.46 84.413 559.141 81.9241 578.714 82.6733L580.223 82.734C594.95 83.3427 613.601 84.6892 626.448 93.5457C627.187 92.7787 628.376 92.3851 629.454 92.9172C644.721 100.454 661.513 105.903 677.588 111.317C693.589 116.705 710.19 120.262 726.961 121.696C733.271 122.235 738.671 129.282 734.675 135.602C733.725 137.108 732.799 138.629 731.877 140.154C733.419 139.988 734.962 139.816 736.504 139.655C741.578 139.127 746.648 144.728 746.347 149.838C746.16 153.052 745.824 156.228 745.328 159.365C747.261 159.323 749.182 159.623 751.039 160.435C760.439 164.54 759.785 176.12 759.081 184.93C758.107 197.156 753.685 210.106 745.476 219.256C751.605 225.84 755.944 233.703 758.533 243.042C760.41 249.861 761.455 257.124 760.939 264.223L760.775 266.348C760.137 274.051 758.869 282.579 753.511 288.121C750.76 290.978 747.371 292.019 744.141 291.689C746.094 309.442 747.347 327.296 748.526 345.086L749.078 353.589C751.708 394.706 753.684 436.091 753.167 477.276C752.687 515.765 745.333 553.124 722.507 584.375C701.719 612.832 671.871 633.81 638.105 641.784C619.908 646.089 601.331 646.394 582.913 643.651C573.986 642.318 564.999 640.273 556.526 637.048C547.146 633.467 540.405 628.197 534.094 620.299C531.109 616.553 532.546 608.578 538.49 609.327C547.479 610.455 555.686 611.813 564.304 614.563L565.538 614.965C574.122 617.81 583.012 619.93 591.986 620.832C610.368 622.673 629.03 620.819 646.639 615.054C675.309 605.657 700.001 584.718 715.828 558.407C734.614 527.219 736.738 491.816 736.467 455.956C736.176 416.606 734.939 377.232 732.919 337.923L732.575 331.372C731.506 311.143 730.475 290.902 729.568 270.661C729.285 264.311 728.855 257.911 728.081 251.575C720.997 247.283 714.649 241.365 710.511 234.064C702.199 237.619 693.457 240.184 685.413 242.229C666.782 246.968 647.438 248.118 628.474 245.151C623.359 247.336 618.142 249.257 612.845 250.911C611.413 251.567 609.981 252.212 608.551 252.845C595.78 258.496 582.826 263.283 569.346 266.788L566.034 267.642C558.94 269.45 551.234 271.231 543.684 271.791C542.444 272.286 541.105 272.705 539.643 273.073C532.768 274.8 525.633 275.346 518.586 274.737C511.722 274.14 506.761 266.965 510.543 260.248C513.305 255.346 516.094 250.457 518.906 245.581C509.12 249.797 499.015 253.302 488.823 256.273C478.534 259.27 468.097 261.797 457.647 264.121C452.06 265.353 446.45 266.445 440.876 267.676C436.885 268.553 430.758 269.01 427.503 271.727C423.907 274.711 422.888 281.67 421.524 285.962C419.731 291.537 418.049 297.137 416.514 302.8C413.458 314.102 410.953 325.569 409.013 337.15C407.073 348.743 405.771 360.451 405.046 372.197C404.323 383.93 404.641 395.74 403.476 407.423C402.848 413.619 396.416 416.807 391.664 412.476C391.106 411.969 390.545 411.455 389.988 410.936L389.159 410.153C385.094 406.343 381.152 402.305 377.9 397.759C377.31 396.921 376.745 396.045 376.217 395.156C376.132 395.156 376.058 395.13 375.972 395.067L375.07 394.365C365.14 386.721 348.549 376.755 338.866 389.454C335.781 393.5 334.201 398.651 332.89 403.621L330.589 412.516C329.101 418.322 327.701 424.161 326.881 430.102C325.027 443.41 325.96 458.749 334.814 469.416C338.351 473.683 343.225 476.73 348.663 477.53C351.697 477.962 354.693 477.429 357.702 477.035C360.759 476.642 363.704 477.276 366.763 476.972C371.625 476.476 373.749 482.496 371.932 486.28C370.95 488.311 369.795 490.064 368.482 491.55C369.537 492.489 370.545 493.505 371.515 494.572C374.388 495.524 376.965 497.569 378.894 500.273C380.454 502.457 381.263 504.832 381.399 507.334C381.57 507.956 381.717 508.591 381.853 509.238L384.488 513.66C385.067 514.63 385.644 515.588 386.223 516.527C392.927 527.448 400.369 536.692 409.615 545.403C418.517 553.784 428.179 561.289 436.542 570.28L437.527 571.347C445.323 579.844 453.541 590.129 450.49 602.483C449.704 605.657 445.418 607.943 442.62 605.797C433.619 598.889 429.087 587.943 421.451 579.562C413.592 570.927 404.886 563.169 397.005 554.559C389.551 546.432 383.669 537.226 379.238 527.092C377.469 529.111 374.891 530.546 371.318 531.105C365.179 532.057 359.456 528.337 356.781 522.838C355.06 523.626 353.306 524.337 351.536 524.896C342.229 527.842 336.374 517.137 339.885 509.226C341.763 504.984 344.108 501.302 347.019 498.203C337.92 496.908 328.662 492.045 322.682 485.975C307.679 470.724 305.616 447.803 308.993 427.423C310.785 416.616 313.878 405.683 317.895 395.537C318.593 393.772 319.344 391.994 320.165 390.242C319.711 390.229 319.244 390.026 318.949 389.632C316.236 385.797 312.934 382.661 310.919 378.369C309.065 374.432 307.004 370.445 305.541 366.343C302.534 357.95 301.061 348.476 300.079 339.6C298.053 321.429 298.837 303.372 301.527 285.315C306.106 254.559 317.167 225.127 333.461 199.301C332.574 198.818 331.724 198.236 330.932 197.548L330.54 197.195L329.904 196.601C325.254 192.249 325.656 184.093 329.904 179.685L331.246 178.294C332.945 176.549 334.41 175.166 337.155 173.265C337.56 172.984 337.974 172.72 338.392 172.474C336.956 169.729 336.457 166.518 337.458 162.977C340.945 150.639 358.11 151.076 368.99 156.456C381.027 145.346 394.374 135.702 408.84 127.892C443.295 109.302 482.253 96.3368 520.293 88.413ZM342.194 413.365C348.628 411.194 357.174 415.753 362.957 418.496C370.287 421.975 376.525 427.118 382.566 432.553C385.574 435.27 386.113 439.715 385.365 443.511C385.29 443.892 385.218 444.286 385.131 444.68C384.333 448.731 379.961 451.918 376.094 451.804C368.002 451.575 364.148 444.35 359.567 438.229C359.028 439.219 358.353 440.134 357.516 440.819L356.952 441.276C355.051 442.773 352.956 443.97 350.444 443.854C348.664 443.765 346.958 443.296 345.385 442.445C341.456 440.299 339.726 435.042 340.793 430.762C341.456 428.07 342.979 425.962 344.968 424.502L344.226 423.977C342.64 422.836 341.193 421.632 340.065 419.856L339.811 419.435H339.909C338.681 417.251 339.481 414.28 342.194 413.365Z" fill="black"/>
<path fill-rule="evenodd" clip-rule="evenodd" d="M643.103 559.912C634.054 562.621 624.341 562.863 615.117 560.065C606.751 557.528 598.161 551.943 592.004 544.553C586.534 537.989 582.991 530.011 583.13 521.496C583.146 520.523 583.483 519.711 584 519.081C584.557 518.403 585.336 517.937 586.169 517.735C587.027 517.527 587.933 517.601 588.705 517.963C589.404 518.291 590.002 518.848 590.376 519.663C591.323 520.947 592.265 522.213 593.212 523.444C600.82 533.154 608.188 540.411 619.629 543.014C625.837 544.426 632.037 543.8 637.725 541.645C643.814 539.338 649.319 535.282 653.632 530.092C655.581 527.746 657.883 526.788 660.133 526.772C662.683 526.754 665.204 527.979 667.103 529.936C668.969 531.861 670.219 534.475 670.333 537.211C670.432 539.611 669.674 542.119 667.659 544.356C661.019 551.726 652.414 557.125 643.103 559.912ZM642.824 438.292C652.1 444.12 666.233 457.709 656.255 472.156C644.509 484.895 627.597 470.289 619.263 463.684C611.536 458.564 602.854 471.731 610.023 477.709C670.243 523.79 694.681 439.816 647.515 431.44C642.322 430.517 640.394 436.489 642.824 438.292ZM556.052 412.65C553.071 410.679 549.564 410.003 545.677 411.83C542.64 413.258 537.313 418.017 533.605 424.273C531.069 428.554 529.27 433.575 529.645 438.805C529.732 440.02 529.297 440.915 528.612 441.577C528.071 442.1 527.29 442.485 526.372 442.605C525.593 442.707 524.721 442.615 524.012 442.386C522.663 441.951 521.949 441.047 521.68 440.308C519.084 433.183 520.202 425.232 523.112 418.058C527.038 408.377 534.168 400.268 538.839 397.653C546.833 393.178 556.264 392.972 564.269 397.531C571.083 401.412 575.344 407.677 579.582 414.063C580.483 415.421 581.377 416.768 582.301 418.092C584.153 420.745 584.337 423.376 583.62 425.632C582.826 428.132 580.8 430.241 578.266 431.345C575.925 432.365 573.207 432.509 570.803 431.46C568.771 430.575 566.907 428.848 565.727 425.919C563.741 420.986 560.431 415.544 556.052 412.65V412.65ZM707.469 423.625C705.427 424.724 703.83 425.056 701.565 424.354C700.312 423.966 699.074 423.22 698.105 422.219C697.145 421.226 696.452 419.991 696.182 418.622C695.52 415.241 693.73 412.077 691.18 410.015C689.001 408.252 686.25 407.317 683.199 407.844C679.906 408.413 676.769 410.595 674.609 413.168C673.887 414.029 673.321 415.007 672.752 415.979C671.687 417.795 670.652 419.484 669.184 420.817C668.628 421.325 667.789 421.677 666.977 421.677C666.647 421.677 666.312 421.621 665.993 421.518C662.715 418.119 662.085 415.54 662.191 412.981C662.302 410.299 663.325 407.583 664.978 405.049C668.857 399.105 676.222 394.231 681.191 393.127C687.997 391.615 694.756 393.43 700.175 397.359C705.751 401.401 709.882 407.678 711.17 414.751C711.48 416.454 711.349 418.293 710.721 419.887C710.108 421.445 709.039 422.78 707.469 423.625ZM571.062 349.273C566.978 353.386 562.144 354.023 557.253 354.59C554.536 354.908 552.367 355.164 550.232 355.662C544.365 357.031 538.566 359.092 533.275 362.061C527.744 365.165 521.716 368.909 517.38 373.704C516.349 374.845 515.377 376.043 514.403 377.243C513.516 378.337 512.661 379.391 511.76 380.406C510.725 381.573 509.742 382.796 508.765 384.015C508.16 385.045 508.041 385.298 507.919 385.561C507.736 385.957 507.523 386.4 507.28 386.876C506.946 387.527 506.556 388.239 506.147 388.885C505.467 390.066 505.102 390.391 504.787 390.537C504.263 390.778 503.767 390.897 503.285 390.832C502.834 390.772 502.409 390.548 501.989 390.181C499.892 388.35 499.273 385.345 499.337 382.155C499.433 377.314 501.16 371.954 502.753 368.66C506.455 361.004 511.591 353.046 517.765 347.332C524.812 340.81 532.52 335.873 541.374 332.47C546.876 330.355 553.247 328.414 559.242 328.659C563.557 328.836 567.676 330.161 571.077 333.472C573.166 335.504 574.169 338.395 574.169 341.284C574.169 344.23 573.128 347.194 571.062 349.273ZM715.775 386.937C715.516 387.377 715.156 387.68 714.756 387.862C714.337 388.053 713.869 388.108 713.419 388.03C712.972 387.952 712.547 387.742 712.21 387.422C711.886 387.115 711.64 386.708 711.53 386.209C708.819 373.899 703.553 364.741 692.315 358.835C686.787 355.929 680.43 354.083 674.412 352.612C672.663 352.184 670.815 351.907 668.954 351.626C663.122 350.746 657.248 349.738 653.446 344.865C651.155 341.93 650.194 338.177 650.737 334.744C651.249 331.512 653.076 328.548 656.398 326.772C664.668 322.352 674.945 326.689 683.297 330.383C683.916 330.657 684.524 330.926 685.119 331.186C693.286 334.749 700.735 339.452 706.858 346.178C711.716 351.515 716.218 359.403 718.031 367.518C719.539 374.269 719.184 381.162 715.775 386.937Z" fill="black"/>
<path fill-rule="evenodd" clip-rule="evenodd" d="M757.6 409.575C746.461 476.401 668.701 483.791 654.885 417.449C657.103 416.588 658.698 414.893 658.365 411.602C658.287 397.144 663.347 381.864 678.052 373.824C693.248 365.528 711.031 364.705 728.617 364.915C762.174 364.206 761.469 389.083 757.6 409.575M642.712 380.512C632.181 380.118 618.856 380.448 609.422 386.139C606.828 379.944 600.089 373.33 593.28 369.793C618.589 370.45 644.641 368.241 670.14 366.526C664.036 370.216 658.358 375.76 654.667 382.169C651.242 380.549 646.338 380.7 642.712 380.512M596.291 416.66C567.087 505.813 494.192 466.954 486.244 455.529C471.91 436.622 469.213 390.661 481.7 378.372C499.573 367.26 524.877 370.12 545.991 369.847C584.782 370.311 612.332 380.603 596.291 416.66M792.082 375.655C784.148 374.735 775.669 374.549 768.292 377.648C766.021 369.085 758.89 361.927 750.839 358.777C749.864 357.693 750.01 357.111 746.682 357.273C726.241 351.825 703.368 354.708 683.725 360.295C652.703 362.612 620.156 364.439 588.873 367.632C559.568 355.959 471.131 354.249 465.635 383.017C458.721 382.1 446.948 377.275 441.139 383.821C398.527 377.414 354.497 386.318 311.701 390.284C300.929 392.043 295.38 411.004 307.608 410.745C314.483 409.09 307.397 398.938 316.654 398.174C357.945 394.175 398.333 388.5 440.047 387.836C438.596 394.224 467.637 394.64 468.066 390.909C468.128 390.937 468.193 390.956 468.256 390.981C461.08 414.7 467.558 448.836 480.527 463.544C498.697 482.804 544.316 488.329 564.544 475.937C590.637 464.501 617.782 407.091 610.157 388.018C623.995 384.128 637.675 385.296 652.037 387.277C648.749 395.514 643.073 415.791 651.239 417.55C649.74 457.808 691.05 482.927 729.132 466.412C762.093 452.69 773.62 409.253 769.586 382.888C773.69 389.92 808.143 382.264 792.082 375.655" fill="black"/>
</g>
<defs>
<filter id="filter0_d" x="0" y="0" width="898" height="1419.79" filterUnits="userSpaceOnUse" color-interpolation-filters="sRGB">
<feFlood flood-opacity="0" result="BackgroundImageFix"/>
<feColorMatrix in="SourceAlpha" type="matrix" values="0 0 0 0 0 0 0 0 0 0 0 0 0 0 0 0 0 0 127 0"/>
<feOffset dy="4"/>
<feGaussianBlur stdDeviation="2"/>
<feColorMatrix type="matrix" values="0 0 0 0 0 0 0 0 0 0 0 0 0 0 0 0 0 0 0.25 0"/>
<feBlend mode="normal" in2="BackgroundImageFix" result="effect1_dropShadow"/>
<feBlend mode="normal" in="SourceGraphic" in2="effect1_dropShadow" result="shape"/>
</filter>
</defs>
</svg>
